<svg xmlns="http://www.w3.org/2000/svg" viewBox="0 0 500 372.61"><defs><style>.cls-1{isolation:isolate;}.cls-2{fill:#ebebeb;}.cls-3{fill:#f5f5f5;}.cls-4,.cls-9{fill:#e6e6e6;}.cls-5{fill:#f0f0f0;}.cls-13,.cls-6{fill:#fff;}.cls-7{fill:#fafafa;}.cls-8{fill:#e0e0e0;}.cls-13,.cls-14,.cls-19,.cls-8{opacity:0.5;}.cls-9{opacity:0.7;mix-blend-mode:multiply;}.cls-10,.cls-18{fill:#407bff;}.cls-11{opacity:0.2;}.cls-12,.cls-18{opacity:0.3;}.cls-15{fill:#ffc3bd;}.cls-16{fill:#263238;}.cls-17{fill:#ed847e;}</style></defs><g class="cls-1"><g id="Layer_2" data-name="Layer 2"><g id="Background_Complete" data-name="Background Complete"><rect class="cls-2" y="327.45" width="500" height="0.25"/><path class="cls-2" d="M237,282.85H43.91a5.71,5.71,0,0,1-5.7-5.71V5.71A5.71,5.71,0,0,1,43.91,0H237a5.71,5.71,0,0,1,5.71,5.71V277.14A5.71,5.71,0,0,1,237,282.85ZM43.91.25a5.46,5.46,0,0,0-5.45,5.46V277.14a5.46,5.46,0,0,0,5.45,5.46H237a5.47,5.47,0,0,0,5.46-5.46V5.71A5.47,5.47,0,0,0,237,.25Z"/><path class="cls-2" d="M453.31,282.85H260.21a5.72,5.72,0,0,1-5.71-5.71V5.71A5.72,5.72,0,0,1,260.21,0h193.1A5.71,5.71,0,0,1,459,5.71V277.14A5.71,5.71,0,0,1,453.31,282.85ZM260.21.25a5.47,5.47,0,0,0-5.46,5.46V277.14a5.47,5.47,0,0,0,5.46,5.46h193.1a5.47,5.47,0,0,0,5.46-5.46V5.71A5.47,5.47,0,0,0,453.31.25Z"/><rect class="cls-2" x="52.46" y="343.54" width="33.21" height="0.25"/><rect class="cls-2" x="146.33" y="342.55" width="54.1" height="0.25"/><rect class="cls-2" x="86.67" y="334.26" width="19.11" height="0.25"/><rect class="cls-2" x="435.12" y="335.94" width="14.78" height="0.25"/><rect class="cls-2" x="391.47" y="335.94" width="34.74" height="0.25"/><rect class="cls-2" x="267.33" y="340.16" width="45.45" height="0.25"/><polygon class="cls-3" points="363.53 114.96 385.28 114.96 382.71 62.62 363.53 62.62 363.53 114.96"/><polygon class="cls-3" points="416.85 120.03 423 139.22 416.85 139.22 379.12 120.03 416.85 120.03"/><polygon class="cls-4" points="423 120.03 423 139.22 385.28 120.03 423 120.03"/><polygon class="cls-3" points="319.12 120.03 325.27 139.22 319.12 139.22 281.4 120.03 319.12 120.03"/><polygon class="cls-4" points="325.27 120.03 325.27 139.22 287.55 120.03 325.27 120.03"/><rect class="cls-4" x="409.67" y="115.06" width="24.34" height="5.76"/><rect class="cls-3" x="272.44" y="115.06" width="137.23" height="5.76" transform="translate(682.1 235.88) rotate(180)"/><polygon class="cls-4" points="337.56 114.96 378.26 114.96 384.04 51.54 343.33 51.54 337.56 114.96"/><polygon class="cls-5" points="335.14 114.96 375.85 114.96 381.62 51.54 340.91 51.54 335.14 114.96"/><polygon class="cls-6" points="371.93 107.94 377.2 58.56 344.83 58.56 339.55 107.94 371.93 107.94"/><rect class="cls-4" x="75.31" y="32.1" width="139.7" height="161.83" transform="translate(290.32 226.02) rotate(180)"/><rect class="cls-5" x="70" y="32.1" width="142.52" height="161.83" transform="translate(282.53 226.02) rotate(180)"/><rect class="cls-4" x="75.31" y="193.93" width="139.7" height="9.86" transform="translate(290.32 397.71) rotate(180)"/><rect class="cls-5" x="61.17" y="193.93" width="142.52" height="9.86" transform="translate(264.86 397.71) rotate(180)"/><rect class="cls-7" x="67.78" y="49.18" width="146.97" height="127.67" transform="translate(254.28 -28.25) rotate(90)"/><polygon class="cls-6" points="152.05 186.5 140.15 39.53 119.58 39.53 131.47 186.5 152.05 186.5"/><polygon class="cls-6" points="166.85 186.5 154.96 39.53 134.38 39.53 146.27 186.5 166.85 186.5"/><path class="cls-5" d="M201.66,121.17a.57.57,0,0,0,.57-.57V44.36a.56.56,0,0,0-.57-.57.57.57,0,0,0-.57.57V120.6A.58.58,0,0,0,201.66,121.17Z"/><polygon class="cls-6" points="127.05 186.5 115.15 39.53 107.13 39.53 119.03 186.5 127.05 186.5"/><rect class="cls-4" x="4.42" y="112.54" width="146.97" height="0.94" transform="translate(190.92 35.11) rotate(90)"/><polygon class="cls-8" points="68.25 52.99 207.95 52.99 208.63 42.41 68.93 42.41 68.25 52.99"/><polygon class="cls-8" points="68.25 70.38 207.95 70.38 208.63 59.8 68.93 59.8 68.25 70.38"/><polygon class="cls-8" points="68.25 87.78 207.95 87.78 208.63 77.2 68.93 77.2 68.25 87.78"/><polygon class="cls-8" points="68.25 105.17 207.95 105.17 208.63 94.59 68.93 94.59 68.25 105.17"/><polygon class="cls-8" points="68.25 122.56 207.95 122.56 208.63 111.98 68.93 111.98 68.25 122.56"/><polygon class="cls-8" points="68.25 139.95 207.95 139.95 208.63 129.37 68.93 129.37 68.25 139.95"/><rect class="cls-5" x="408.84" y="190.71" width="29.04" height="129.43" transform="translate(846.71 510.86) rotate(180)"/><rect class="cls-5" x="289.1" y="320.14" width="143.2" height="7.3" transform="translate(721.4 647.59) rotate(180)"/><rect class="cls-3" x="283.53" y="190.71" width="125.31" height="129.43"/><rect class="cls-5" x="294.94" y="237.67" width="102.48" height="30.9"/><rect class="cls-5" x="294.94" y="275.46" width="102.48" height="30.9"/><rect class="cls-3" x="331.85" y="236.63" width="28.67" height="5.18" rx="2.45" transform="translate(692.36 478.45) rotate(-180)"/><rect class="cls-5" x="294.94" y="199.88" width="102.48" height="30.9"/><rect class="cls-3" x="331.85" y="198.84" width="28.67" height="5.18" rx="2.45" transform="translate(692.36 402.87) rotate(-180)"/><rect class="cls-3" x="331.85" y="274.42" width="28.67" height="5.18" rx="2.45" transform="translate(692.36 554.03) rotate(-180)"/><rect class="cls-5" x="279.66" y="185.88" width="129.18" height="4.83" transform="translate(688.49 376.59) rotate(180)"/><rect class="cls-4" x="408.84" y="185.88" width="33.1" height="4.83"/><rect class="cls-5" x="175.14" y="251.45" width="15.4" height="76"/><rect class="cls-3" x="78.21" y="251.45" width="96.94" height="76" transform="translate(253.35 578.89) rotate(180)"/><rect class="cls-7" x="77.87" y="296.17" width="67.04" height="20.87" transform="translate(222.78 613.21) rotate(180)"/><rect class="cls-7" x="77.87" y="268.58" width="67.04" height="20.87" transform="translate(222.78 558.02) rotate(180)"/><rect class="cls-9" x="77.87" y="256.45" width="112.67" height="2.68"/><rect class="cls-5" x="175.14" y="249.83" width="17.2" height="7.75"/><rect class="cls-3" x="76.41" y="249.83" width="98.73" height="7.75" transform="translate(251.56 507.4) rotate(180)"/></g><g id="Shadow"><ellipse id="_Path_" data-name="&lt;Path&gt;" class="cls-3" cx="250" cy="361.29" rx="193.89" ry="11.32"/></g><g id="Newsletter"><path class="cls-10" d="M365.55,166.37a15,15,0,0,0-15.23-16.92h62.36a15,15,0,0,1,15.24,16.92Z"/><path class="cls-11" d="M365.55,166.37a15,15,0,0,0-15.23-16.92h62.36a15,15,0,0,1,15.24,16.92Z"/><path class="cls-10" d="M350.32,149.45h62.36a19.13,19.13,0,0,0-18.61,16.92l-5.4,54.08a19.13,19.13,0,0,1-18.61,16.93H341.54a15,15,0,0,1-15.23-16.93l5.39-54.08A19.14,19.14,0,0,1,350.32,149.45Z"/><path class="cls-10" d="M354.83,220.45a15,15,0,0,0,15.23,16.93H307.69a15.05,15.05,0,0,1-15.23-16.93Z"/><path class="cls-11" d="M354.83,220.45a15,15,0,0,0,15.23,16.93H307.69a15.05,15.05,0,0,1-15.23-16.93Z"/><path class="cls-6" d="M339.89,185.38h42.2a1.51,1.51,0,0,0,1.46-1.33l0-.14a1.19,1.19,0,0,0-1.2-1.33H340.16a1.5,1.5,0,0,0-1.45,1.33l0,.14A1.19,1.19,0,0,0,339.89,185.38Z"/><path class="cls-6" d="M339,194.11h42.21a1.51,1.51,0,0,0,1.46-1.33l0-.14a1.19,1.19,0,0,0-1.2-1.33H339.29a1.51,1.51,0,0,0-1.46,1.33v.14A1.18,1.18,0,0,0,339,194.11Z"/><path class="cls-6" d="M338.14,202.84h42.21a1.51,1.51,0,0,0,1.46-1.33v-.14a1.18,1.18,0,0,0-1.19-1.33H338.42a1.51,1.51,0,0,0-1.46,1.33v.14A1.18,1.18,0,0,0,338.14,202.84Z"/><path class="cls-6" d="M347,211.57h32.45a1.51,1.51,0,0,0,1.46-1.33v-.14a1.18,1.18,0,0,0-1.19-1.33H347.31a1.51,1.51,0,0,0-1.46,1.33v.14A1.18,1.18,0,0,0,347,211.57Z"/><path class="cls-6" d="M341.63,167.91h42.21a1.5,1.5,0,0,0,1.46-1.32v-.15a1.18,1.18,0,0,0-1.19-1.32H341.91a1.5,1.5,0,0,0-1.46,1.32l0,.15A1.18,1.18,0,0,0,341.63,167.91Z"/><path class="cls-6" d="M340.76,176.64H383a1.49,1.49,0,0,0,1.45-1.32l0-.15a1.18,1.18,0,0,0-1.19-1.32H341a1.5,1.5,0,0,0-1.46,1.32l0,.15A1.18,1.18,0,0,0,340.76,176.64Z"/><path class="cls-10" d="M210.93,151.18l-3.81,38.17A5,5,0,0,0,212.2,195h86.86a6.41,6.41,0,0,0,6.21-5.65l3.81-38.17a5.21,5.21,0,0,0-.21-2.1,5,5,0,0,0-4.88-3.54H217.14a6.43,6.43,0,0,0-5.59,3.53A6,6,0,0,0,210.93,151.18Z"/><path class="cls-12" d="M211.55,149.07l40.32,30.18a9.32,9.32,0,0,0,10.66,0l46.34-30.17a5,5,0,0,0-4.88-3.54H217.14A6.43,6.43,0,0,0,211.55,149.07Z"/><path class="cls-10" d="M230.62,154.69h46.7a8.52,8.52,0,0,0,8.27-7.52l6.75-67.57a6.7,6.7,0,0,0-6.77-7.51h-46.7a8.52,8.52,0,0,0-8.27,7.51l-6.74,67.57A6.69,6.69,0,0,0,230.62,154.69Z"/><path class="cls-13" d="M230.62,154.69h46.7a8.52,8.52,0,0,0,8.27-7.52l6.75-67.57a6.7,6.7,0,0,0-6.77-7.51h-46.7a8.52,8.52,0,0,0-8.27,7.51l-6.74,67.57A6.69,6.69,0,0,0,230.62,154.69Z"/><path class="cls-6" d="M238.62,108.43h39.95a1.91,1.91,0,0,0,1.85-1.69h0a1.51,1.51,0,0,0-1.52-1.69H239a1.91,1.91,0,0,0-1.86,1.69h0A1.51,1.51,0,0,0,238.62,108.43Z"/><path class="cls-6" d="M237.57,119h39.95a1.91,1.91,0,0,0,1.85-1.69h0a1.51,1.51,0,0,0-1.52-1.69h-40a1.91,1.91,0,0,0-1.85,1.69h0A1.51,1.51,0,0,0,237.57,119Z"/><rect class="cls-6" x="235" y="126.11" width="43.32" height="3.37" rx="1.69"/><path class="cls-6" d="M244.89,140h30.52a1.91,1.91,0,0,0,1.86-1.68h0a1.51,1.51,0,0,0-1.52-1.69H245.23a1.91,1.91,0,0,0-1.86,1.69h0A1.5,1.5,0,0,0,244.89,140Z"/><path class="cls-6" d="M240.72,87.37h40a1.91,1.91,0,0,0,1.85-1.69h0A1.5,1.5,0,0,0,281,84H241.06a1.92,1.92,0,0,0-1.86,1.69h0A1.51,1.51,0,0,0,240.72,87.37Z"/><path class="cls-6" d="M239.67,97.9h40a1.91,1.91,0,0,0,1.85-1.69h0A1.51,1.51,0,0,0,280,94.52H240a1.91,1.91,0,0,0-1.86,1.69h0A1.51,1.51,0,0,0,239.67,97.9Z"/><path class="cls-10" d="M267.19,262l2.53-25.32a5.26,5.26,0,0,0-5.31-5.9h-53a6.68,6.68,0,0,0-6.49,5.9L202.36,262a5.27,5.27,0,0,0,5.31,5.9h53A6.69,6.69,0,0,0,267.19,262Z"/><path class="cls-6" d="M235.48,254.89a1.28,1.28,0,0,0,.65-.18l29-17.24a1.27,1.27,0,0,0,.53-1.63,1.12,1.12,0,0,0-1.59-.36l-28.29,16.84-24.93-16.84a1.24,1.24,0,0,0-1.66.36,1.13,1.13,0,0,0,.21,1.63l25.51,17.24A1.11,1.11,0,0,0,235.48,254.89Z"/><path class="cls-10" d="M401.07,104.3,404.29,72a6.71,6.71,0,0,0-6.77-7.52H330A8.53,8.53,0,0,0,321.68,72l-3.22,32.26a6.7,6.7,0,0,0,6.77,7.51H392.8A8.53,8.53,0,0,0,401.07,104.3Z"/><path class="cls-14" d="M401.07,104.3,404.29,72a6.71,6.71,0,0,0-6.77-7.52H330A8.53,8.53,0,0,0,321.68,72l-3.22,32.26a6.7,6.7,0,0,0,6.77,7.51H392.8A8.53,8.53,0,0,0,401.07,104.3Z"/><path class="cls-6" d="M360.66,95.28a1.58,1.58,0,0,0,.83-.23l36.9-22a1.6,1.6,0,0,0,.67-2.07,1.42,1.42,0,0,0-2-.46L361,92,329.23,70.55a1.56,1.56,0,0,0-2.11.46,1.43,1.43,0,0,0,.26,2.07l32.5,22A1.37,1.37,0,0,0,360.66,95.28Z"/></g><g id="Character"><path class="cls-15" d="M146.2,103.64c-2.52,4.43-5.06,9-7.5,13.55s-4.81,9.12-6.91,13.69c-.5,1.14-1,2.29-1.49,3.42l-.34.85-.18.42,0,.11v-.11a3.2,3.2,0,0,0,0-1.23,3.85,3.85,0,0,0-1.21-2,2.19,2.19,0,0,0-1-.52c-.13,0-.09,0,0,.05a4.37,4.37,0,0,0,1.09.12,25,25,0,0,0,3.31-.2c4.77-.6,9.95-1.75,15-2.82l2.08,5.37a74.55,74.55,0,0,1-15.22,6.45,28.21,28.21,0,0,1-4.51.94,15.36,15.36,0,0,1-2.86.08,9.56,9.56,0,0,1-1.94-.34,7.12,7.12,0,0,1-2.72-1.45,6.67,6.67,0,0,1-2.17-3.71,7.63,7.63,0,0,1,.06-3.18l.14-.55.08-.27,0-.13.16-.5.33-1c.43-1.36.93-2.63,1.4-3.95,2-5.13,4.25-10,6.66-14.85s5-9.47,7.8-14.13Z"/><path class="cls-16" d="M175.76,69.48c-.16.6,0,1.16.43,1.26s.83-.3,1-.9,0-1.17-.43-1.27S175.91,68.88,175.76,69.48Z"/><path class="cls-17" d="M175.74,70.63a22.39,22.39,0,0,0,1.56,5.85,3.54,3.54,0,0,1-3-.19Z"/><path class="cls-16" d="M174.41,65.59a.31.31,0,0,1-.18-.19.36.36,0,0,1,.2-.47,3.61,3.61,0,0,1,3.31.26.36.36,0,0,1-.42.59h0a2.91,2.91,0,0,0-2.62-.18A.33.33,0,0,1,174.41,65.59Z"/><path class="cls-15" d="M157.33,72.71c-1.57,5.7-.89,13.72-5.55,17.46,0,0,.42,5.68,10.83,5.68,11.46,0,6.6-5.68,6.6-5.68-6-1.5-4.89-6.13-2.94-10.49Z"/><path class="cls-16" d="M151.37,91.43c-.83-1.1-1.74-2.35.15-2.75,2.07-.43,13.41-.87,17.32-.06s2.81,3,2.81,3Z"/><path class="cls-10" d="M118.14,350.1a2.48,2.48,0,0,0,1.91-.1.76.76,0,0,0,.18-.85.82.82,0,0,0-.47-.53c-1-.5-3.41.47-3.51.52a.18.18,0,0,0,0,.33A10.16,10.16,0,0,0,118.14,350.1Zm1.25-1.22a.65.65,0,0,1,.21.07.48.48,0,0,1,.28.31c.1.32,0,.43-.06.46-.42.35-1.95,0-3-.4A5.88,5.88,0,0,1,119.39,348.88Z"/><path class="cls-10" d="M116.28,349.48h.09c.86-.26,2.72-1.57,2.74-2.44a.6.6,0,0,0-.46-.59,1,1,0,0,0-.81.07c-1,.52-1.67,2.64-1.7,2.73a.18.18,0,0,0,0,.18A.13.13,0,0,0,116.28,349.48Zm2.17-2.71.08,0c.22.08.22.19.22.24,0,.51-1.24,1.55-2.14,2,.23-.61.74-1.82,1.4-2.15A.63.63,0,0,1,118.45,346.77Z"/><path class="cls-10" d="M173.32,353.85c1,0,1.94-.13,2.26-.57a.69.69,0,0,0,0-.8.89.89,0,0,0-.57-.42c-1.28-.35-4,1.18-4.07,1.24a.19.19,0,0,0-.09.19.19.19,0,0,0,.14.15A13.34,13.34,0,0,0,173.32,353.85Zm1.22-1.48a1.25,1.25,0,0,1,.35,0,.61.61,0,0,1,.36.25c.12.23.08.34,0,.4-.36.5-2.29.51-3.72.31A8.27,8.27,0,0,1,174.54,352.37Z"/><path class="cls-10" d="M171,353.64h.07c.93-.42,2.76-2.08,2.62-2.94,0-.21-.18-.46-.68-.51a1.32,1.32,0,0,0-1,.31c-1,.8-1.18,2.87-1.19,2.95a.18.18,0,0,0,.07.17A.2.2,0,0,0,171,353.64Zm1.87-3.1H173c.32,0,.35.16.35.21.09.52-1.16,1.82-2.1,2.38a4.28,4.28,0,0,1,1-2.36A.94.94,0,0,1,172.88,350.54Z"/><polygon class="cls-15" points="162.58 353.46 170.25 353.46 171.01 335.71 163.35 335.71 162.58 353.46"/><polygon class="cls-15" points="107.73 347.44 115.22 349.07 122.75 332.54 115.25 330.92 107.73 347.44"/><path class="cls-16" d="M115.94,348.31l-8.41-1.82a.67.67,0,0,0-.75.38l-2.92,6.33a1.13,1.13,0,0,0,.81,1.57c3,.59,4.41.73,8.11,1.53,2.28.49,7.42,1.74,10.56,2.42s4.23-2.34,3-2.9c-5.49-2.51-7.79-4.72-9.28-6.78A1.9,1.9,0,0,0,115.94,348.31Z"/><path class="cls-16" d="M170.2,352.57h-8.37a.67.67,0,0,0-.66.53l-1.51,6.81a1.11,1.11,0,0,0,1.1,1.36c3,0,7.38-.23,11.18-.23,4.43,0,8.27.25,13.47.25,3.15,0,4-3.19,2.7-3.47-6-1.31-10.89-1.46-16.07-4.65A3.5,3.5,0,0,0,170.2,352.57Z"/><path class="cls-10" d="M139.22,91.9c-7.18,1.65-11.54,14.72-11.54,14.72L140,120.38a154.82,154.82,0,0,0,7.78-13.56C152,97.85,146.56,90.22,139.22,91.9Z"/><path class="cls-12" d="M142.43,104.18c-2,2.84-3.84,6.95-1.77,15.08,1.62-2.6,3.21-5.26,4.58-7.67h0C145.61,105,144.34,101.89,142.43,104.18Z"/><path class="cls-10" d="M184,97c1.84,7,3.68,23.84-1.41,61.58h-41c-.28-6.29,3.67-37-2.4-66.63a106.75,106.75,0,0,1,13.72-1.73,148.94,148.94,0,0,1,17.43,0,72.39,72.39,0,0,1,7.81,1.19A7.64,7.64,0,0,1,184,97Z"/><path class="cls-12" d="M184.28,98.05h0c-6.77-6.2-11.77-6.5-13.13.31-2.85,14.27,13.94,29.64,14.43,30.08C186.45,112.31,185.43,103.12,184.28,98.05Z"/><path class="cls-15" d="M180,94.54c2.2,2.44,4.27,4.92,6.38,7.39s4.15,5,6.16,7.57,4,5.13,6,7.77,3.88,5.31,5.74,8.14L201,123.29c1.65.42,3.31.87,5,1.21s3.43.72,5.17,1,3.51.6,5.29.86,3.59.51,5.3.77l.36,5.74c-2,.45-3.83.7-5.76.95s-3.84.34-5.78.4a67.4,67.4,0,0,1-11.73-.66l-1.82-.27-1.41-1.85c-1.85-2.44-3.88-4.88-5.88-7.33l-6.15-7.31-12.42-14.64Z"/><path class="cls-16" d="M246.38,78a21.23,21.23,0,0,0-24.51,13c-3.59,9.67,1.56,19.54,11.5,22.05a21.22,21.22,0,0,0,24.51-13C261.48,90.37,256.32,80.5,246.38,78Zm-12,32.25a13.75,13.75,0,0,1-9.68-18.56,17.87,17.87,0,0,1,20.63-10.92A13.76,13.76,0,0,1,255,99.33,17.88,17.88,0,0,1,234.4,110.24Z"/><path class="cls-18" d="M234.86,109A12.6,12.6,0,0,1,226,92a16.37,16.37,0,0,1,18.9-10,12.61,12.61,0,0,1,8.88,17A16.38,16.38,0,0,1,234.86,109Z"/><g class="cls-19"><path class="cls-7" d="M244.89,82l-.26-.06-18.55,9.81L226,92a13.05,13.05,0,0,0-.22,8.83l26.47-14A13,13,0,0,0,244.89,82Z"/><path class="cls-7" d="M253.21,88.36l-26.73,14.15a11.91,11.91,0,0,0,1.75,2.55l26.07-13.8A11.94,11.94,0,0,0,253.21,88.36Z"/></g><path class="cls-16" d="M234.38,115l-3.16-.8a.79.79,0,0,1-.56-1.06h0a1,1,0,0,1,1.19-.63l3.16.8a.8.8,0,0,1,.56,1.07h0A1,1,0,0,1,234.38,115Z"/><path class="cls-16" d="M234.47,113.57c-.2,1.39-.49,2.75-.82,4.1s-.7,2.7-1.1,4-.84,2.66-1.3,4-.46,2.76-2.63,3.64a2.36,2.36,0,0,1-2.11-.32,1.72,1.72,0,0,1-.27-.27c-1.2-1.74-.09-2.9.29-4.24s1.05-2.6,1.63-3.9,1.17-2.57,1.82-3.84,1.33-2.54,2.11-3.78a1.43,1.43,0,0,1,1.55-.24C234.18,112.91,234.51,113.26,234.47,113.57Z"/><path class="cls-15" d="M220,133l5.64.51-1.14-8.78s-4.33.07-6.49,3.09Z"/><polygon class="cls-15" points="233.06 131.49 231.17 125.81 224.46 124.76 225.6 133.54 233.06 131.49"/><path class="cls-10" d="M170.23,97.88c-2.95,10.14,12.54,24.21,12.54,24.21l13.91-13.62s-4.59-5.72-7.81-9.49C179.84,88.42,172.59,89.78,170.23,97.88Z"/><polygon class="cls-11" points="171.01 335.72 170.62 344.87 162.95 344.87 163.34 335.72 171.01 335.72"/><polygon class="cls-11" points="115.25 330.92 122.74 332.54 118.86 341.06 111.37 339.44 115.25 330.92"/><path class="cls-15" d="M156.1,63.13c-1.42,7.47-2.63,11.78.13,16.5,4.14,7.1,14.08,6,17.7-.86,3.26-6.21,5-17.39-1.43-22.15A10.37,10.37,0,0,0,156.1,63.13Z"/><path class="cls-16" d="M169,69.66c1.56-.61,11.89-13.79-10.44-13.95-9.72-.07-8.65,19.21-1.77,23.05S170.65,74.71,169,69.66Z"/><path class="cls-16" d="M156.31,58.09c12.62,5.09,25.06,5.82,27.95-1.15,2.28-5.5-4.67-1.49-4.67-1.49s4.07-6-3.12-6.19-3.75,4-3.75,4S151,47,156.31,58.09Z"/><path class="cls-16" d="M156.32,55.87s-3.67-.23-4.54,3.05c1.08-1.25,2.4-2.29,3.31-1.32C156.4,56.54,156.32,55.87,156.32,55.87Z"/><path class="cls-15" d="M167.71,68.7a7.34,7.34,0,0,0,.43,4.66c.88,1.92,2.58,1.45,3.4-.29.73-1.56,1.17-4.44-.22-5.79S168.19,66.83,167.71,68.7Z"/><path class="cls-16" d="M168.07,158.53S159.37,217.1,154.6,239c-5.23,24-31.87,101-31.87,101l-13.72-3s19.61-72.12,22.6-95.91c3.23-25.81,10-82.68,10-82.68Z"/><path class="cls-10" d="M126,335.51s-2.56,5-2.56,5L108,337.13l1.31-4.64Z"/><path class="cls-12" d="M162.57,179.4c-10.06,2-9,39.47-7.78,58.76,2.9-13.64,7.14-39.87,10-58.49A3.43,3.43,0,0,0,162.57,179.4Z"/><path class="cls-16" d="M182.61,158.53s1,57.3.22,80.67c-.87,24.31-9.36,103.9-9.36,103.9h-13s-.48-78.17-1.05-102.05c-.63-26-3.78-82.52-3.78-82.52Z"/><path class="cls-10" d="M176,337.92c.06,0-.73,5.39-.73,5.39H159.45L159,338.5Z"/></g></g></g></svg>