<svg id="OBJECTS" xmlns="http://www.w3.org/2000/svg" viewBox="0 0 700 650"><defs><style>.cls-1{fill:#87888a;}.cls-1,.cls-4{opacity:0.4;}.cls-2{fill:#f8fafb;}.cls-3{fill:#ececf0;}.cls-4{fill:#b2b3b5;}.cls-5{fill:#fff;}.cls-6{fill:#88ba34;}.cls-7{fill:#b0b1b3;}.cls-8{fill:#bdbec0;}.cls-9{fill:#d1d2d4;}.cls-10{fill:none;stroke:#b0b1b3;stroke-linecap:round;stroke-linejoin:round;}.cls-11{fill:#13959c;}.cls-12{fill:#22cce2;}.cls-13{fill:#b4b3b3;}.cls-14{fill:#edefc7;}.cls-15{fill:#d2d2d2;}.cls-16{fill:#dddde0;}.cls-17{fill:#fdfffe;}.cls-18{fill:#543823;}.cls-19{fill:#fcb040;}.cls-20{fill:#e6a03a;}</style></defs><path class="cls-1" d="M240,379.74l-8-8a2.51,2.51,0,0,0-3.55,0L226,374.26a2.51,2.51,0,0,0,0,3.55l1,1L225.86,380a2.52,2.52,0,0,0-.31,3.17l-4.3,4.31a54.65,54.65,0,0,0-36.19-16.37v-3a4.06,4.06,0,0,0,4.06-4.06v-2.59h1.69a4.06,4.06,0,0,0,4.06-4.06v-5.75a4.06,4.06,0,0,0-4.06-4.06H172.54a4.06,4.06,0,0,0-4.06,4.06v5.75a4.06,4.06,0,0,0,4.06,4.06h2.37V364a4,4,0,0,0,3.27,4v3.17a54.57,54.57,0,0,0-35.43,16.56l-4.58-4.58a2.49,2.49,0,0,0-.31-3.17l-1.13-1.13,1-1a2.51,2.51,0,0,0,0-3.55l-2.52-2.51a2.51,2.51,0,0,0-3.55,0l-8,8a2.51,2.51,0,0,0,0,3.55l2.52,2.51a2.51,2.51,0,0,0,3.55,0l.74-.74,1.13,1.14a2.51,2.51,0,0,0,3.55,0h0l4.7,4.69a54.8,54.8,0,1,0,83.22-1.42l1.07,1.07,4.34-4.34h0a2.51,2.51,0,0,0,3.55,0l1.13-1.14.74.74a2.51,2.51,0,0,0,3.55,0l2.52-2.51A2.51,2.51,0,0,0,240,379.74Z" transform="translate(-37.47 -60.1)"/><path class="cls-2" d="M571.06,258.68c-12.65,0-23-8.24-23-18.33S555,222,563.45,222s15.39-8.31,15.39-18.46-10.35-18.46-23-18.46H478.57c-12.65,0-23-8.3-23-18.46s-10.35-18.45-23-18.45H405.42c-12.65,0-23-8.31-23-18.46s-10.35-18.46-23-18.46H258.88c-12.65,0-23,8.31-23,18.46s-10.35,18.46-23,18.46H174.19c-12.65,0-23,8.3-23,18.45s10.35,18.46,23,18.46h44.93c12.65,0,23,8.26,23,18.36s-10.23,18.36-22.74,18.36-22.73,8.29-22.73,18.42-10.23,18.43-22.73,18.43-22.73,8.31-22.73,18.46,10.35,18.46,23,18.46H605.26c12.65,0,23-8.31,23-18.46s-10.35-18.46-23-18.46Zm-264.5-92.56c0,8.92-10.28,16.22-22.93,16.22h-6.76c-12.65,0-23-7.37-23-16.37s10.35-16.32,23-16.24l6.63,0C296.14,149.84,306.52,157.2,306.56,166.12Z" transform="translate(-37.47 -60.1)"/><path class="cls-2" d="M241.26,582.71a22.06,22.06,0,0,0-22,22v1.74a22.06,22.06,0,0,1-22,22h-8.55a22.06,22.06,0,0,0-22,22v1.75a22.06,22.06,0,0,0,22,22h270.5a22.06,22.06,0,0,0,22-22v-1.75a22.06,22.06,0,0,1,22-22h76.46a22.06,22.06,0,0,0,22-22v-1.74a22.06,22.06,0,0,1,22-22H665a22.06,22.06,0,0,0,22-22V559a22.06,22.06,0,0,0-22-22H644a22.06,22.06,0,0,1-22-22v-1.5a22.06,22.06,0,0,0-22-22H217.23a22.06,22.06,0,0,0-22,22v1.75a22.06,22.06,0,0,0,22,22h34.31a22.06,22.06,0,0,1,22,22v1.5a22.06,22.06,0,0,1-22,22Z" transform="translate(-37.47 -60.1)"/><path class="cls-2" d="M722.39,141a5.26,5.26,0,0,0-5.5-4.95,5.52,5.52,0,0,1-5.51-5.5,5,5,0,1,0-9.9,0A5.52,5.52,0,0,1,696,136a5,5,0,1,0,0,9.9,5.51,5.51,0,0,1,5.5,5.5,5,5,0,1,0,9.9,0,5.52,5.52,0,0,1,5.51-5.5A5.27,5.27,0,0,0,722.39,141Z" transform="translate(-37.47 -60.1)"/><path class="cls-2" d="M177.15,718.18a4.29,4.29,0,0,0-4.48-4,4.5,4.5,0,0,1-4.49-4.49,4.06,4.06,0,1,0-8.08,0,4.5,4.5,0,0,1-4.49,4.49,4.06,4.06,0,1,0,0,8.08,4.5,4.5,0,0,1,4.49,4.49,4.06,4.06,0,1,0,8.08,0,4.5,4.5,0,0,1,4.49-4.49A4.29,4.29,0,0,0,177.15,718.18Z" transform="translate(-37.47 -60.1)"/><path class="cls-2" d="M103.4,85.91A4.28,4.28,0,0,0,108,82a4.5,4.5,0,0,1,5.08-3.81,4.06,4.06,0,1,0,1.14-8,4.52,4.52,0,0,1-3.82-5.08,4.06,4.06,0,1,0-8-1.14,4.49,4.49,0,0,1-5.07,3.81,4.06,4.06,0,1,0-1.14,8A4.5,4.5,0,0,1,100,80.9,4.3,4.3,0,0,0,103.4,85.91Z" transform="translate(-37.47 -60.1)"/><path class="cls-2" d="M697.59,758a4.29,4.29,0,0,0-1.73-5.78,4.51,4.51,0,0,1-1.5-6.17,4.06,4.06,0,1,0-6.89-4.21,4.51,4.51,0,0,1-6.18,1.49,4.06,4.06,0,1,0-4.2,6.9,4.5,4.5,0,0,1,1.49,6.17,4.06,4.06,0,1,0,6.9,4.21,4.51,4.51,0,0,1,6.17-1.5A4.29,4.29,0,0,0,697.59,758Z" transform="translate(-37.47 -60.1)"/><path class="cls-2" d="M70.75,571.65a6,6,0,1,1-6-6A6.05,6.05,0,0,1,70.75,571.65Z" transform="translate(-37.47 -60.1)"/><circle class="cls-2" cx="13.61" cy="256.68" r="13.61"/><path class="cls-3" d="M1714.65,1279c0-.86.08-1.71.14-2.56C1714.79,1276.4,1714.71,1277.29,1714.65,1279Z" transform="translate(-37.47 -60.1)"/><rect class="cls-4" x="451.25" y="335.85" width="252.95" height="206.39" transform="translate(-91.3 736.25) rotate(-66.73)"/><path class="cls-4" d="M530.57,259H482.68a13.06,13.06,0,0,0-12.77-10.3H429.28a20.22,20.22,0,0,0-37.93,0H350.72A13.06,13.06,0,0,0,338,259H290.06a8.68,8.68,0,0,0-8.82,8.53V579.12a8.82,8.82,0,0,0,8.82,8.82H530.57a8.83,8.83,0,0,0,8.83-8.82V267.56A8.69,8.69,0,0,0,530.57,259Z" transform="translate(-37.47 -60.1)"/><rect class="cls-5" x="443.76" y="324.24" width="252.95" height="206.39" transform="translate(-85.17 722.34) rotate(-66.73)"/><path class="cls-3" d="M667.38,380.43a1.89,1.89,0,0,1-2.52.79L538.68,327A1.74,1.74,0,1,1,540,323.8l126.18,54.26A1.88,1.88,0,0,1,667.38,380.43Z" transform="translate(-37.47 -60.1)"/><path class="cls-3" d="M620.4,367.05a1.88,1.88,0,0,1-2.52.79l-81.67-35.12a1.74,1.74,0,1,1,1.36-3.16l81.67,35.12A1.89,1.89,0,0,1,620.4,367.05Z" transform="translate(-37.47 -60.1)"/><path class="cls-3" d="M597.46,364.12a1.88,1.88,0,0,1-2.52.79l-61.25-26.34a1.74,1.74,0,1,1,1.36-3.16l61.25,26.34A1.88,1.88,0,0,1,597.46,364.12Z" transform="translate(-37.47 -60.1)"/><path class="cls-3" d="M655.13,408.92a1.88,1.88,0,0,1-2.52.79L526.43,355.45a1.74,1.74,0,1,1,1.36-3.16L654,406.55A1.88,1.88,0,0,1,655.13,408.92Z" transform="translate(-37.47 -60.1)"/><path class="cls-3" d="M608.15,395.54a1.89,1.89,0,0,1-2.52.8L524,361.21a1.74,1.74,0,1,1,1.36-3.16L607,393.17A1.89,1.89,0,0,1,608.15,395.54Z" transform="translate(-37.47 -60.1)"/><path class="cls-3" d="M585.21,392.61a1.88,1.88,0,0,1-2.52.79l-61.25-26.34a1.74,1.74,0,1,1,1.36-3.16l61.25,26.34A1.89,1.89,0,0,1,585.21,392.61Z" transform="translate(-37.47 -60.1)"/><path class="cls-3" d="M640.9,442a1.87,1.87,0,0,1-2.51.79L512.21,388.54a1.74,1.74,0,1,1,1.36-3.17l126.18,54.26A1.87,1.87,0,0,1,640.9,442Z" transform="translate(-37.47 -60.1)"/><path class="cls-3" d="M593.92,428.63a1.88,1.88,0,0,1-2.51.79L509.73,394.3a1.74,1.74,0,1,1,1.36-3.17l81.68,35.12A1.88,1.88,0,0,1,593.92,428.63Z" transform="translate(-37.47 -60.1)"/><path class="cls-3" d="M571,425.69a1.88,1.88,0,0,1-2.51.8l-61.26-26.34a1.74,1.74,0,1,1,1.36-3.17l61.26,26.34A1.88,1.88,0,0,1,571,425.69Z" transform="translate(-37.47 -60.1)"/><path class="cls-3" d="M609.92,514.05a1.88,1.88,0,0,1-2.51.79L481.23,460.58a1.74,1.74,0,1,1,1.36-3.16l126.18,54.26A1.87,1.87,0,0,1,609.92,514.05Z" transform="translate(-37.47 -60.1)"/><path class="cls-3" d="M562.94,500.67a1.87,1.87,0,0,1-2.51.79l-81.68-35.12a1.74,1.74,0,1,1,1.36-3.16l81.68,35.12A1.87,1.87,0,0,1,562.94,500.67Z" transform="translate(-37.47 -60.1)"/><path class="cls-3" d="M540,497.74a1.87,1.87,0,0,1-2.51.79l-61.26-26.34a1.74,1.74,0,1,1,1.36-3.16l61.26,26.34A1.87,1.87,0,0,1,540,497.74Z" transform="translate(-37.47 -60.1)"/><path class="cls-3" d="M628.76,470.24a1.88,1.88,0,0,1-2.52.79L500.06,416.77a1.74,1.74,0,1,1,1.36-3.16L627.6,467.87A1.87,1.87,0,0,1,628.76,470.24Z" transform="translate(-37.47 -60.1)"/><path class="cls-3" d="M581.78,456.86a1.88,1.88,0,0,1-2.52.79l-81.67-35.12a1.74,1.74,0,1,1,1.36-3.16l81.67,35.12A1.88,1.88,0,0,1,581.78,456.86Z" transform="translate(-37.47 -60.1)"/><path class="cls-3" d="M574,475a1.89,1.89,0,0,1-2.52.79l-81.68-35.12a1.74,1.74,0,1,1,1.36-3.17l81.68,35.13A1.88,1.88,0,0,1,574,475Z" transform="translate(-37.47 -60.1)"/><path class="cls-3" d="M558.84,453.93a1.88,1.88,0,0,1-2.52.79l-61.25-26.34a1.74,1.74,0,1,1,1.36-3.16l61.25,26.34A1.88,1.88,0,0,1,558.84,453.93Z" transform="translate(-37.47 -60.1)"/><path class="cls-3" d="M545.11,455.31a1.88,1.88,0,0,1-2.51.8l-50.17-21.58a1.74,1.74,0,1,1,1.36-3.16L544,452.94A1.87,1.87,0,0,1,545.11,455.31Z" transform="translate(-37.47 -60.1)"/><path class="cls-6" d="M650,396.14a.74.74,0,0,1-.73-.58l-2.19-9.2a.75.75,0,0,1,.44-.87.71.71,0,0,1,.29-.05.75.75,0,0,1,.64.36l3.25,5.34,12-4a.67.67,0,0,1,.24,0,.75.75,0,0,1,.69.45.76.76,0,0,1-.33,1l-13.9,7.58A.74.74,0,0,1,650,396.14Z" transform="translate(-37.47 -60.1)"/><path class="cls-6" d="M647.82,386.19l3.56,5.85,12.53-4.23L650,395.39l-2.19-9.2m16.09,1.62h0m-16.1-3.13a1.47,1.47,0,0,0-.58.12,1.5,1.5,0,0,0-.88,1.73l2.19,9.21a1.53,1.53,0,0,0,.85,1,1.49,1.49,0,0,0,.61.13,1.51,1.51,0,0,0,.72-.18l13.86-7.57a1.48,1.48,0,0,0,.82-1.33,1.5,1.5,0,0,0-1.42-1.5h-.3a1.38,1.38,0,0,0-.29.08L652,390.24l-2.93-4.83a1.51,1.51,0,0,0-1.28-.73Z" transform="translate(-37.47 -60.1)"/><path class="cls-6" d="M593.44,527.7a.77.77,0,0,1-.3-.06.78.78,0,0,1-.43-.51l-2.2-9.21a.76.76,0,0,1,.45-.87.69.69,0,0,1,.28,0,.74.74,0,0,1,.64.36l3.25,5.34,12-4a.67.67,0,0,1,.24,0,.75.75,0,0,1,.36,1.41l-13.9,7.58A.74.74,0,0,1,593.44,527.7Z" transform="translate(-37.47 -60.1)"/><path class="cls-6" d="M591.24,517.75l3.56,5.85,12.54-4.23L593.44,527l-2.2-9.2m16.1,1.62h0m-16.1-3.12a1.44,1.44,0,0,0-.57.11,1.5,1.5,0,0,0-.89,1.73l2.2,9.21a1.5,1.5,0,0,0,.85,1,1.46,1.46,0,0,0,.61.13,1.51,1.51,0,0,0,.72-.18L608,520.71a1.5,1.5,0,0,0-.61-2.84h-.29a1.38,1.38,0,0,0-.29.08l-11.37,3.84L592.52,517a1.48,1.48,0,0,0-1.28-.72Z" transform="translate(-37.47 -60.1)"/><path class="cls-6" d="M622.81,459.4a.77.77,0,0,1-.3-.06.78.78,0,0,1-.43-.51l-2.2-9.21a.76.76,0,0,1,.45-.87.69.69,0,0,1,.28-.05.74.74,0,0,1,.64.36l3.25,5.34,12-4a.67.67,0,0,1,.24,0,.75.75,0,0,1,.36,1.41l-13.9,7.58A.77.77,0,0,1,622.81,459.4Z" transform="translate(-37.47 -60.1)"/><path class="cls-6" d="M620.61,449.45l3.56,5.85,12.54-4.23-13.9,7.58-2.2-9.2m16.1,1.62h0M620.61,448a1.44,1.44,0,0,0-.57.11,1.5,1.5,0,0,0-.89,1.73l2.2,9.21a1.5,1.5,0,0,0,.85,1,1.46,1.46,0,0,0,.61.13,1.51,1.51,0,0,0,.72-.18l13.86-7.57a1.48,1.48,0,0,0,.82-1.33,1.5,1.5,0,0,0-1.43-1.5h-.29a1.38,1.38,0,0,0-.29.08l-11.37,3.84-2.94-4.83a1.48,1.48,0,0,0-1.28-.72Z" transform="translate(-37.47 -60.1)"/><polygon class="cls-7" points="144.16 311.26 144.16 311.26 137.29 311.26 137.29 311.26 137.29 302.47 137.29 302.47 144.16 302.47 144.16 302.47 144.16 311.26"/><polygon class="cls-7" points="183.29 327.86 183.29 327.86 180.29 324.85 180.29 324.85 186.09 319.05 186.09 319.05 189.09 322.06 189.09 322.06 183.29 327.86"/><polygon class="cls-7" points="99.79 329 99.79 329 102.8 326 102.8 326 95.82 319.01 95.82 319.01 92.81 322.02 92.81 322.02 99.79 329"/><rect class="cls-8" x="134.02" y="294.47" width="14.21" height="10.94" rx="4.06"/><rect class="cls-8" x="222.78" y="375.5" width="6.76" height="8.79" rx="2.51" transform="translate(-239.85 211.1) rotate(-45)"/><rect class="cls-8" x="126.32" y="376.51" width="8.79" height="6.76" rx="2.51" transform="translate(-267.81 143.6) rotate(-45)"/><rect class="cls-9" x="127.59" y="284.88" width="26.38" height="13.87" rx="4.06"/><rect class="cls-9" x="225.27" y="368.04" width="8.58" height="16.32" rx="2.51" transform="translate(-236.24 212.41) rotate(-45)"/><rect class="cls-9" x="119.15" y="371.91" width="16.32" height="8.58" rx="2.51" transform="translate(-266.19 140.11) rotate(-45)"/><circle class="cls-9" cx="178.7" cy="423.23" r="54.79" transform="translate(-185.53 40.21) rotate(-22.45)"/><circle class="cls-8" cx="141.23" cy="363.13" r="43.43"/><circle class="cls-5" cx="178.7" cy="423.23" r="38.11" transform="translate(-188.98 43.73) rotate(-23.06)"/><rect class="cls-7" x="140.64" y="330.27" width="1.7" height="5.72" rx="0.38"/><rect class="cls-7" x="140.64" y="389.37" width="1.7" height="5.72" rx="0.38"/><rect class="cls-7" x="191.46" y="396.68" width="5.72" height="1.7" rx="0.38" transform="translate(-283.76 296.84) rotate(-58.69)"/><rect class="cls-7" x="160.74" y="447.17" width="5.72" height="1.7" rx="0.38" transform="translate(-341.65 294.84) rotate(-58.69)"/><rect class="cls-7" x="201.72" y="407.2" width="5.72" height="1.7" rx="0.38" transform="translate(-213.65 96.21) rotate(-29.9)"/><rect class="cls-7" x="150.48" y="436.65" width="5.72" height="1.7" rx="0.38" transform="translate(-235.07 74.49) rotate(-29.89)"/><rect class="cls-7" x="207.66" y="420.01" width="1.7" height="5.72" rx="0.38" transform="translate(-252.51 569.9) rotate(-89.81)"/><rect class="cls-7" x="148.56" y="419.82" width="1.7" height="5.72" rx="0.38" transform="translate(-311.26 510.51) rotate(-89.8)"/><rect class="cls-7" x="203.68" y="434.72" width="1.7" height="5.72" rx="0.38" transform="translate(-314.11 335.3) rotate(-59.94)"/><rect class="cls-7" x="152.53" y="405.11" width="1.7" height="5.72" rx="0.38" transform="translate(-313.99 276.15) rotate(-59.92)"/><rect class="cls-7" x="203.68" y="434.72" width="1.7" height="5.72" rx="0.38" transform="translate(-314.11 335.3) rotate(-59.94)"/><rect class="cls-7" x="152.53" y="405.11" width="1.7" height="5.72" rx="0.38" transform="translate(-313.99 276.15) rotate(-59.92)"/><rect class="cls-7" x="193.07" y="445.4" width="1.7" height="5.72" rx="0.38" transform="translate(-237.7 99.74) rotate(-30.41)"/><rect class="cls-7" x="163.15" y="394.43" width="1.7" height="5.72" rx="0.38" transform="translate(-216.01 77.58) rotate(-30.41)"/><path class="cls-7" d="M181.86,422.64a2.5,2.5,0,1,1-2.5-2.5A2.5,2.5,0,0,1,181.86,422.64Z" transform="translate(-37.47 -60.1)"/><line class="cls-10" x1="135.01" y1="367.1" x2="163.26" y2="349.9"/><rect class="cls-11" x="238.67" y="193.82" width="258.16" height="328.91" rx="8.83"/><path class="cls-12" d="M534.29,563.12a8.68,8.68,0,0,1-8.83,8.53H285a8.68,8.68,0,0,1-8.83-8.53V262.44a8.68,8.68,0,0,1,8.83-8.52h240.5a8.68,8.68,0,0,1,8.83,8.52Z" transform="translate(-37.47 -60.1)"/><rect class="cls-5" x="253.66" y="211.58" width="228.18" height="279.64"/><path class="cls-13" d="M477.88,256.68a13.07,13.07,0,0,0-13.07-13.07H345.62a13.07,13.07,0,0,0-13.07,13.07v23H477.88Z" transform="translate(-37.47 -60.1)"/><circle class="cls-13" cx="405.21" cy="250.67" r="20.26" transform="translate(-74.26 368.51) rotate(-53.67)"/><path class="cls-14" d="M411.42,244.47a6.21,6.21,0,1,1-6.21-6.21A6.21,6.21,0,0,1,411.42,244.47Z" transform="translate(-37.47 -60.1)"/><rect class="cls-15" x="295.08" y="203.58" width="145.33" height="16.01"/><path class="cls-3" d="M479.43,332.3a2,2,0,0,1-2,1.9H325.16a1.91,1.91,0,1,1,0-3.81H477.43A2,2,0,0,1,479.43,332.3Z" transform="translate(-37.47 -60.1)"/><path class="cls-3" d="M425.87,339.23a2,2,0,0,1-2,1.9H325.16a1.91,1.91,0,1,1,0-3.81h98.71A2,2,0,0,1,425.87,339.23Z" transform="translate(-37.47 -60.1)"/><path class="cls-3" d="M401.29,346.27a2,2,0,0,1-2,1.9H325.16a1.9,1.9,0,1,1,0-3.8h74.13A2,2,0,0,1,401.29,346.27Z" transform="translate(-37.47 -60.1)"/><rect class="cls-3" x="318.92" y="317.23" width="124.11" height="5.9" rx="2"/><rect class="cls-3" x="318.92" y="346.94" width="124.11" height="5.9" rx="2"/><rect class="cls-3" x="318.92" y="377.18" width="124.11" height="5.9" rx="2"/><rect class="cls-3" x="318.92" y="405.39" width="124.11" height="5.9" rx="2"/><path class="cls-3" d="M344,369.62v18.51H325.51V369.62H344m2.36-2.35H323.16v23.22h23.22V367.27Z" transform="translate(-37.47 -60.1)"/><path class="cls-3" d="M344,399.72v18.52H325.51V399.72H344m2.36-2.35H323.16v23.22h23.22V397.37Z" transform="translate(-37.47 -60.1)"/><path class="cls-3" d="M344,429.79v18.52H325.51V429.79H344m2.36-2.35H323.16v23.22h23.22V427.44Z" transform="translate(-37.47 -60.1)"/><path class="cls-3" d="M344,460.24v18.52H325.51V460.24H344m2.36-2.35H323.16v23.22h23.22V457.89Z" transform="translate(-37.47 -60.1)"/><path class="cls-6" d="M334.87,385.23a.73.73,0,0,1-.59-.3l-7.66-10.27a.75.75,0,0,1,1-1.06l7.07,5,12.87-11.56a.73.73,0,0,1,.5-.19.75.75,0,0,1,.59,1.21L335.47,385a.74.74,0,0,1-.59.28Z" transform="translate(-37.47 -60.1)"/><path class="cls-6" d="M348.1,367.63h0m0,0-13.22,16.85-7.65-10.26,7.55,5.37,13.32-12m0-1.5h0a1.44,1.44,0,0,0-1,.39l-12.43,11.15L328.1,373a1.56,1.56,0,0,0-.87-.27,1.5,1.5,0,0,0-1.21,2.39l7.66,10.27a1.47,1.47,0,0,0,1.18.6h0a1.51,1.51,0,0,0,1.18-.57l13.19-16.81a1.51,1.51,0,0,0-1.14-2.47Z" transform="translate(-37.47 -60.1)"/><path class="cls-6" d="M334.87,413a.76.76,0,0,1-.59-.3l-7.66-10.27a.74.74,0,0,1,.07-1,.74.74,0,0,1,1-.09l7.07,5,12.87-11.57a.78.78,0,0,1,.5-.19.74.74,0,0,1,.51.2.76.76,0,0,1,.08,1l-13.22,16.85a.75.75,0,0,1-.59.29Z" transform="translate(-37.47 -60.1)"/><path class="cls-6" d="M348.1,395.37h0m0,0-13.22,16.86L327.23,402l7.55,5.38,13.32-12m0-1.5h0a1.49,1.49,0,0,0-1,.39l-12.43,11.16-6.57-4.68a1.51,1.51,0,0,0-2,.17,1.52,1.52,0,0,0-.13,1.95l7.66,10.26a1.48,1.48,0,0,0,1.18.61h0a1.49,1.49,0,0,0,1.18-.58l13.19-16.81a1.51,1.51,0,0,0-1.14-2.47Z" transform="translate(-37.47 -60.1)"/><path class="cls-16" d="M291.12,482.72V551h33.22C322.88,551,293.13,517,291.12,482.72Z" transform="translate(-37.47 -60.1)"/><path class="cls-3" d="M328.59,518.71c-9.85-2.93-17.12-7-22.49-11.57a41,41,0,0,1-15-29.17v4.47c2,34.31,31.76,68.59,33.22,68.58a11,11,0,0,1-2.28-6.87C321.88,537.83,325.27,529.17,328.59,518.71Z" transform="translate(-37.47 -60.1)"/><path class="cls-4" d="M310.81,519.5l-22.47,10.73,0,0,0,0L168.16,650.89h0l-7.83,7.84.06.06-2.94,3a11.6,11.6,0,0,0,16.42,16.39l2.93-2.94.07.06,7.85-7.87h0L304.91,546.73h0l10.82-22.33,0,.05,4.82-9.94-10,4.77Z" transform="translate(-37.47 -60.1)"/><path class="cls-5" d="M170.12,670.79a11.59,11.59,0,0,1-16.4,0h0a11.59,11.59,0,0,1,0-16.4l16.09-16.1a11.59,11.59,0,0,1,16.4,0h0a11.59,11.59,0,0,1,0,16.4Z" transform="translate(-37.47 -60.1)"/><rect class="cls-15" x="163.22" y="644.04" width="11.12" height="23.37" transform="translate(-451.93 251.7) rotate(-45.04)"/><polygon class="cls-17" points="247.13 462.79 263.67 479.3 279.06 447.54 247.13 462.79"/><polygon class="cls-18" points="279.38 447.05 269.37 451.83 274.56 457 279.38 447.05"/><rect class="cls-19" x="147.63" y="579.78" width="170.31" height="23.38" transform="translate(-388.02 278.9) rotate(-45.11)"/><rect class="cls-20" x="147.63" y="586.34" width="170.31" height="10.25" transform="translate(-388.02 278.9) rotate(-45.11)"/><path class="cls-3" d="M321.77,534.56l0,.08" transform="translate(-37.47 -60.1)"/></svg>