<svg xmlns="http://www.w3.org/2000/svg" viewBox="0 0 500 372.61"><defs><style>.cls-1,.cls-6{fill:#ebebeb;}.cls-2{fill:#e6e6e6;}.cls-3{fill:#f0f0f0;}.cls-4{fill:#fafafa;}.cls-10,.cls-5{fill:#fff;}.cls-6{opacity:0.6;}.cls-7{fill:#f5f5f5;}.cls-8{fill:#e0e0e0;}.cls-9{fill:#407bff;}.cls-10{opacity:0.5;}</style></defs><g id="Background_Complete" data-name="Background Complete"><rect class="cls-1" y="327.45" width="500" height="0.25"/><rect class="cls-1" x="416.78" y="343.54" width="33.12" height="0.25"/><rect class="cls-1" x="322.53" y="346.26" width="8.69" height="0.25"/><rect class="cls-1" x="396.59" y="334.26" width="19.19" height="0.25"/><rect class="cls-1" x="52.46" y="335.94" width="43.19" height="0.25"/><rect class="cls-1" x="104.56" y="335.94" width="6.33" height="0.25"/><rect class="cls-1" x="131.47" y="340.16" width="93.68" height="0.25"/><path class="cls-1" d="M237,337.8H43.91a5.71,5.71,0,0,1-5.7-5.71V60.66A5.71,5.71,0,0,1,43.91,55H237a5.71,5.71,0,0,1,5.71,5.71V332.09A5.71,5.71,0,0,1,237,337.8ZM43.91,55.2a5.46,5.46,0,0,0-5.45,5.46V332.09a5.46,5.46,0,0,0,5.45,5.46H237a5.47,5.47,0,0,0,5.46-5.46V60.66A5.47,5.47,0,0,0,237,55.2Z" transform="translate(0 -54.95)"/><path class="cls-1" d="M453.31,337.8H260.21a5.72,5.72,0,0,1-5.71-5.71V60.66A5.72,5.72,0,0,1,260.21,55h193.1A5.71,5.71,0,0,1,459,60.66V332.09A5.71,5.71,0,0,1,453.31,337.8ZM260.21,55.2a5.47,5.47,0,0,0-5.46,5.46V332.09a5.47,5.47,0,0,0,5.46,5.46h193.1a5.47,5.47,0,0,0,5.46-5.46V60.66a5.47,5.47,0,0,0-5.46-5.46Z" transform="translate(0 -54.95)"/><rect class="cls-2" x="289.69" y="83.83" width="137.78" height="90.23" transform="translate(717.16 202.94) rotate(180)"/><rect class="cls-3" x="285.49" y="83.83" width="140.02" height="90.23" transform="translate(710.99 202.94) rotate(180)"/><rect class="cls-2" x="289.69" y="174.06" width="137.78" height="17.71" transform="translate(717.16 310.87) rotate(180)"/><rect class="cls-3" x="278.48" y="174.06" width="140.02" height="17.71" transform="translate(696.99 310.87) rotate(180)"/><rect class="cls-4" x="316.27" y="64.82" width="78.46" height="128.25" transform="translate(484.44 -281.5) rotate(90)"/><polygon class="cls-5" points="390.7 113.22 374.32 34.77 348.76 34.77 365.14 113.22 390.7 113.22"/><path class="cls-3" d="M416.9,162.32a.42.42,0,0,0,.42-.43V93.55a.42.42,0,0,0-.42-.42.41.41,0,0,0-.42.42v68.34A.42.42,0,0,0,416.9,162.32Z" transform="translate(0 -54.95)"/><polygon class="cls-5" points="359.65 113.22 343.27 34.77 333.3 34.77 349.69 113.22 359.65 113.22"/><rect class="cls-2" x="252.52" y="128.57" width="78.46" height="0.75" transform="translate(420.69 -217.75) rotate(90)"/><polygon class="cls-6" points="284.1 43.64 421.88 43.64 422.42 37.05 284.64 37.05 284.1 43.64"/><polygon class="cls-6" points="284.1 54.44 421.88 54.44 422.42 47.85 284.64 47.85 284.1 54.44"/><polygon class="cls-6" points="284.1 65.24 421.88 65.24 422.42 58.66 284.64 58.66 284.1 65.24"/><polygon class="cls-6" points="284.1 76.05 421.88 76.05 422.42 69.46 284.64 69.46 284.1 76.05"/><polygon class="cls-6" points="284.1 86.85 421.88 86.85 422.42 80.26 284.64 80.26 284.1 86.85"/><polygon class="cls-6" points="284.1 97.65 421.88 97.65 422.42 91.06 284.64 91.06 284.1 97.65"/><rect class="cls-2" x="378.8" y="261.83" width="28.89" height="5.7"/><rect class="cls-2" x="324.31" y="251.33" width="5.33" height="131.07" transform="translate(653.95 578.78) rotate(180)"/><rect class="cls-7" x="305.84" y="316.78" width="72.96" height="5.7" transform="translate(684.63 584.31) rotate(180)"/><rect class="cls-2" x="378.8" y="293" width="28.89" height="5.7"/><rect class="cls-7" x="305.84" y="347.95" width="72.96" height="5.7" transform="translate(684.63 646.64) rotate(180)"/><rect class="cls-2" x="378.8" y="199.5" width="28.89" height="5.7"/><rect class="cls-7" x="305.84" y="254.45" width="72.96" height="5.7" transform="translate(684.63 459.64) rotate(180)"/><rect class="cls-2" x="378.8" y="230.66" width="28.89" height="5.7"/><rect class="cls-7" x="305.84" y="285.61" width="72.96" height="5.7" transform="translate(684.63 521.97) rotate(180)"/><rect class="cls-2" x="397.27" y="251.33" width="5.33" height="131.07" transform="translate(799.88 578.78) rotate(180)"/><rect class="cls-7" x="373.47" y="251.33" width="5.33" height="131.07" transform="translate(752.26 578.78) rotate(180)"/><rect class="cls-7" x="305.84" y="251.33" width="5.33" height="131.07" transform="translate(617 578.78) rotate(180)"/><rect class="cls-2" x="65.37" y="276.51" width="54.58" height="105.89" transform="translate(185.33 603.95) rotate(180)"/><polygon class="cls-4" points="79.95 327.45 65.37 327.45 65.37 312.83 95.23 312.83 79.95 327.45"/><rect class="cls-2" x="214.18" y="276.51" width="54.58" height="105.89" transform="translate(482.94 603.95) rotate(180)"/><rect class="cls-4" x="65.37" y="276.51" width="161.53" height="100.86" transform="translate(292.28 598.92) rotate(180)"/><polygon class="cls-4" points="212.33 327.45 226.9 327.45 226.9 312.83 197.05 312.83 212.33 327.45"/><rect class="cls-3" x="76.68" y="314.09" width="138.92" height="25.24" transform="translate(292.28 598.47) rotate(180)"/><rect class="cls-3" x="76.68" y="344.73" width="138.92" height="25.24" transform="translate(292.28 659.74) rotate(180)"/><path class="cls-4" d="M103.08,311.9h86.11a4.58,4.58,0,0,1,4.58,4.58v.31a0,0,0,0,1,0,0H98.51a0,0,0,0,1,0,0v-.31A4.58,4.58,0,0,1,103.08,311.9Z" transform="translate(292.28 573.74) rotate(180)"/><rect class="cls-3" x="76.68" y="283.46" width="138.92" height="25.24" transform="translate(292.28 537.2) rotate(180)"/><path class="cls-4" d="M103.08,281.27h86.11a4.58,4.58,0,0,1,4.58,4.58v.31a0,0,0,0,1,0,0H98.51a0,0,0,0,1,0,0v-.31A4.58,4.58,0,0,1,103.08,281.27Z" transform="translate(292.28 512.47) rotate(180)"/><path class="cls-4" d="M103.08,342.54h86.11a4.58,4.58,0,0,1,4.58,4.58v.31a0,0,0,0,1,0,0H98.51a0,0,0,0,1,0,0v-.31A4.58,4.58,0,0,1,103.08,342.54Z" transform="translate(292.28 635.01) rotate(180)"/><rect class="cls-2" x="74.07" y="83.83" width="137.78" height="90.23" transform="translate(285.92 202.94) rotate(180)"/><rect class="cls-3" x="69.86" y="83.83" width="140.02" height="90.23" transform="translate(279.75 202.94) rotate(180)"/><rect class="cls-2" x="74.07" y="174.06" width="137.78" height="17.71" transform="translate(285.92 310.87) rotate(180)"/><rect class="cls-3" x="62.86" y="174.06" width="140.02" height="17.71" transform="translate(265.74 310.87) rotate(180)"/><rect class="cls-4" x="100.65" y="64.82" width="78.46" height="128.25" transform="translate(268.82 -65.88) rotate(90)"/><polygon class="cls-5" points="175.08 113.22 158.7 34.77 133.14 34.77 149.52 113.22 175.08 113.22"/><path class="cls-3" d="M201.27,162.32a.42.42,0,0,0,.42-.43V93.55a.41.41,0,0,0-.42-.42.42.42,0,0,0-.42.42v68.34A.42.42,0,0,0,201.27,162.32Z" transform="translate(0 -54.95)"/><polygon class="cls-5" points="144.03 113.22 127.65 34.77 117.68 34.77 134.06 113.22 144.03 113.22"/><rect class="cls-2" x="36.9" y="128.57" width="78.46" height="0.75" transform="translate(205.07 -2.13) rotate(90)"/><polygon class="cls-6" points="68.47 43.64 206.25 43.64 206.79 37.05 69.01 37.05 68.47 43.64"/><polygon class="cls-6" points="68.47 47.35 206.25 47.35 206.79 40.77 69.01 40.77 68.47 47.35"/><polygon class="cls-6" points="68.47 51.07 206.25 51.07 206.79 44.48 69.01 44.48 68.47 51.07"/><polygon class="cls-6" points="68.47 54.78 206.25 54.78 206.79 48.2 69.01 48.2 68.47 54.78"/><polygon class="cls-6" points="68.47 58.5 206.25 58.5 206.79 51.91 69.01 51.91 68.47 58.5"/><polygon class="cls-6" points="68.47 62.22 206.25 62.22 206.79 55.63 69.01 55.63 68.47 62.22"/><rect class="cls-7" x="96.01" y="220.18" width="4.76" height="53.09" transform="translate(196.79 438.5) rotate(180)"/><rect class="cls-4" x="96.63" y="220.14" width="1.35" height="53.09" transform="translate(194.6 438.42) rotate(180)"/><rect class="cls-4" x="98.54" y="220.14" width="0.53" height="53.09" transform="translate(197.6 438.42) rotate(180)"/><path class="cls-3" d="M80.76,272.06H116a0,0,0,0,1,0,0v0a4.44,4.44,0,0,1-4.44,4.44H85.21a4.44,4.44,0,0,1-4.44-4.44v0A0,0,0,0,1,80.76,272.06Z" transform="translate(196.79 493.62) rotate(180)"/><path class="cls-3" d="M89.84,253.14h0a1.38,1.38,0,0,0,1.37-1.37V217a1.37,1.37,0,0,0-1.37-1.37h0A1.37,1.37,0,0,0,88.46,217v34.81A1.38,1.38,0,0,0,89.84,253.14Z" transform="translate(0 -54.95)"/><polygon class="cls-8" points="77.07 177.85 119.72 177.85 114.81 148.05 81.98 148.05 77.07 177.85"/></g><g id="Shadow"><ellipse id="_Path_" data-name="&lt;Path&gt;" class="cls-7" cx="250" cy="361.29" rx="193.89" ry="11.32"/></g><g id="Window_No_Data" data-name="Window No Data"><rect class="cls-9" x="103.78" y="202.37" width="1" height="18.49" transform="translate(-14.93 -46.91) rotate(-4.12)"/><rect class="cls-9" x="105.38" y="230.35" width="1" height="6.96" transform="translate(-16.53 -46.74) rotate(-4.12)"/><path class="cls-9" d="M337.71,315.16H123.55a9.65,9.65,0,0,1-9.44-8.81L103.59,160.22a8.1,8.1,0,0,1,8.17-8.8H325.92a9.65,9.65,0,0,1,9.44,8.8l10.52,146.13A8.11,8.11,0,0,1,337.71,315.16Z" transform="translate(0 -54.95)"/><path class="cls-9" d="M338.53,315.16H124.37a9.65,9.65,0,0,1-9.44-8.81L104.41,160.22a8.1,8.1,0,0,1,8.17-8.8H326.74a9.65,9.65,0,0,1,9.44,8.8L346.7,306.35A8.1,8.1,0,0,1,338.53,315.16Z" transform="translate(0 -54.95)"/><path class="cls-10" d="M338.53,315.16H124.37a9.65,9.65,0,0,1-9.44-8.81L104.41,160.22a8.1,8.1,0,0,1,8.17-8.8H326.74a9.65,9.65,0,0,1,9.44,8.8L346.7,306.35A8.1,8.1,0,0,1,338.53,315.16Z" transform="translate(0 -54.95)"/><path class="cls-9" d="M327.06,155.82H112.9l-.72,0c-5.47.45-4.35,8.78,1.17,8.78H327.87c5.53,0,5.45-8.33-.09-8.78Z" transform="translate(0 -54.95)"/><path class="cls-4" d="M118.48,160.22a1.85,1.85,0,0,1-1.88,2,2.2,2.2,0,0,1-2.16-2,1.85,1.85,0,0,1,1.87-2A2.2,2.2,0,0,1,118.48,160.22Z" transform="translate(0 -54.95)"/><path class="cls-4" d="M125.35,160.22a1.85,1.85,0,0,1-1.88,2,2.2,2.2,0,0,1-2.16-2,1.85,1.85,0,0,1,1.87-2A2.2,2.2,0,0,1,125.35,160.22Z" transform="translate(0 -54.95)"/><path class="cls-4" d="M132.21,160.22a1.85,1.85,0,0,1-1.87,2,2.19,2.19,0,0,1-2.16-2,1.84,1.84,0,0,1,1.87-2A2.2,2.2,0,0,1,132.21,160.22Z" transform="translate(0 -54.95)"/><path class="cls-5" d="M332.85,300.58H128a3.49,3.49,0,0,1-3.42-3.2l-8.65-120.17a2.92,2.92,0,0,1,3-3.19h204.9a3.48,3.48,0,0,1,3.42,3.19l8.66,120.17A2.94,2.94,0,0,1,332.85,300.58Z" transform="translate(0 -54.95)"/><polygon class="cls-5" points="246.53 199.85 243.19 153.53 233.09 147.44 205.28 147.44 209.06 199.85 246.53 199.85"/><path class="cls-9" d="M246.53,255.28H209.06a.48.48,0,0,1-.49-.45l-3.77-52.4a.47.47,0,0,1,.13-.36.48.48,0,0,1,.35-.16h27.81a.55.55,0,0,1,.25.07l10.1,6.08a.48.48,0,0,1,.24.38L247,254.76a.46.46,0,0,1-.13.37A.47.47,0,0,1,246.53,255.28Zm-37-1H246l-3.28-45.55L233,202.88H205.8Z" transform="translate(0 -54.95)"/><polygon class="cls-1" points="243.19 153.53 233.09 147.44 236.8 155.5 243.19 153.53"/><path class="cls-9" d="M236.8,210.94a.49.49,0,0,1-.44-.28l-3.71-8.06a.5.5,0,0,1,.11-.57.5.5,0,0,1,.58-.05l10.1,6.08a.5.5,0,0,1,.24.48.49.49,0,0,1-.34.4l-6.4,2Zm-2.61-7.32,2.87,6.25,5-1.53Z" transform="translate(0 -54.95)"/><path class="cls-9" d="M221,226a2,2,0,0,1-2,2.11,2.31,2.31,0,0,1-2.26-2.11,1.94,1.94,0,0,1,2-2.12A2.32,2.32,0,0,1,221,226Z" transform="translate(0 -54.95)"/><path class="cls-9" d="M234.7,226a1.94,1.94,0,0,1-2,2.11,2.32,2.32,0,0,1-2.27-2.11,2,2,0,0,1,2-2.12A2.31,2.31,0,0,1,234.7,226Z" transform="translate(0 -54.95)"/><path class="cls-9" d="M238.58,239.74a.49.49,0,0,1-.48-.45c-.25-3.41-5.59-6.18-11.9-6.18-4.19,0-7.95,1.25-9.81,3.25a3.74,3.74,0,0,0-1.14,2.86.49.49,0,0,1-1,.07,4.76,4.76,0,0,1,1.4-3.59c2-2.19,6.07-3.56,10.52-3.56,6.93,0,12.58,3.11,12.86,7.08a.48.48,0,0,1-.45.51Z" transform="translate(0 -54.95)"/><path class="cls-9" d="M213.17,221.72a.51.51,0,0,1-.33-.13.49.49,0,0,1,0-.69l2.13-2.29a.49.49,0,0,1,.68,0,.48.48,0,0,1,0,.68l-2.13,2.29A.48.48,0,0,1,213.17,221.72Z" transform="translate(0 -54.95)"/><path class="cls-9" d="M237.58,221.72a.55.55,0,0,1-.33-.13l-2.45-2.29a.48.48,0,0,1,0-.69.49.49,0,0,1,.68,0l2.45,2.29a.48.48,0,0,1,0,.68A.52.52,0,0,1,237.58,221.72Z" transform="translate(0 -54.95)"/><path class="cls-9" d="M202.26,265.15h2.26l3.26,4.34-.31-4.34h2.28l.56,7.84H208l-3.24-4.31.31,4.31h-2.28Z" transform="translate(0 -54.95)"/><path class="cls-9" d="M211.33,269.07a3.8,3.8,0,0,1,.86-3,3.76,3.76,0,0,1,2.9-1.07,4.38,4.38,0,0,1,3.09,1.05,4.32,4.32,0,0,1,1.27,2.94,4.77,4.77,0,0,1-.3,2.25,3,3,0,0,1-1.24,1.37,4.16,4.16,0,0,1-2.14.49,5.25,5.25,0,0,1-2.23-.42,3.62,3.62,0,0,1-1.5-1.34A4.66,4.66,0,0,1,211.33,269.07Zm2.43,0a2.73,2.73,0,0,0,.56,1.7,1.59,1.59,0,0,0,1.24.52,1.38,1.38,0,0,0,1.17-.51A2.75,2.75,0,0,0,217,269a2.57,2.57,0,0,0-.56-1.62,1.64,1.64,0,0,0-1.25-.51,1.38,1.38,0,0,0-1.14.52A2.53,2.53,0,0,0,213.76,269.09Z" transform="translate(0 -54.95)"/><path class="cls-9" d="M224.15,265.15h3.6a4.51,4.51,0,0,1,1.74.29,3.06,3.06,0,0,1,1.14.83,3.76,3.76,0,0,1,.71,1.25,6.3,6.3,0,0,1,.3,1.52,5.08,5.08,0,0,1-.15,1.95,2.8,2.8,0,0,1-.71,1.16,2.3,2.3,0,0,1-1,.62,5.6,5.6,0,0,1-1.43.22h-3.59Zm2.55,1.78.31,4.28h.59a2.45,2.45,0,0,0,1.07-.17,1,1,0,0,0,.46-.59,3.54,3.54,0,0,0,.08-1.36,2.72,2.72,0,0,0-.53-1.7,1.81,1.81,0,0,0-1.38-.46Z" transform="translate(0 -54.95)"/><path class="cls-9" d="M237.45,271.69H234.7l-.29,1.3h-2.47l2.38-7.84H237l3.51,7.84h-2.54Zm-.63-1.69-1.06-2.82L235.1,270Z" transform="translate(0 -54.95)"/><path class="cls-9" d="M239.37,265.15h7.36l.14,1.94H244.4l.42,5.9H242.4l-.42-5.9h-2.47Z" transform="translate(0 -54.95)"/><path class="cls-9" d="M252.37,271.69h-2.75l-.29,1.3h-2.47l2.38-7.84h2.64l3.5,7.84h-2.53Zm-.63-1.69-1.07-2.82L250,270Z" transform="translate(0 -54.95)"/></g></svg>