<svg xmlns="http://www.w3.org/2000/svg" viewBox="0 0 500 372.61"><defs><style>.cls-1{fill:#ebebeb;}.cls-2{fill:#e0e0e0;}.cls-3{fill:#f5f5f5;}.cls-10,.cls-11,.cls-4{fill:#fff;}.cls-5{fill:#f0f0f0;}.cls-6{fill:#e6e6e6;}.cls-7{fill:#fafafa;}.cls-8{fill:#407bff;}.cls-10,.cls-9{opacity:0.2;}.cls-11{opacity:0.5;}.cls-12{fill:none;stroke:#407bff;stroke-miterlimit:10;}.cls-13{opacity:0.1;}.cls-14,.cls-19{opacity:0.3;}.cls-15{opacity:0.4;}.cls-16{fill:#263238;}.cls-17{fill:#ed847e;}.cls-18{fill:#ffc3bd;}</style></defs><g id="Layer_2" data-name="Layer 2"><g id="Background_Complete" data-name="Background Complete"><rect class="cls-1" y="327.45" width="500" height="0.25"/><rect class="cls-1" x="416.78" y="343.54" width="33.12" height="0.25"/><rect class="cls-1" x="322.53" y="346.26" width="8.69" height="0.25"/><rect class="cls-1" x="396.59" y="334.26" width="19.19" height="0.25"/><rect class="cls-1" x="52.46" y="335.94" width="43.19" height="0.25"/><rect class="cls-1" x="104.56" y="335.94" width="6.33" height="0.25"/><rect class="cls-1" x="131.47" y="340.16" width="93.68" height="0.25"/><path class="cls-1" d="M237,282.85H43.91a5.71,5.71,0,0,1-5.7-5.71V5.71A5.71,5.71,0,0,1,43.91,0H237a5.71,5.71,0,0,1,5.71,5.71V277.14A5.71,5.71,0,0,1,237,282.85ZM43.91.25a5.46,5.46,0,0,0-5.45,5.46V277.14a5.46,5.46,0,0,0,5.45,5.46H237a5.47,5.47,0,0,0,5.46-5.46V5.71A5.47,5.47,0,0,0,237,.25Z"/><path class="cls-1" d="M453.31,282.85H260.21a5.72,5.72,0,0,1-5.71-5.71V5.71A5.72,5.72,0,0,1,260.21,0h193.1A5.71,5.71,0,0,1,459,5.71V277.14A5.71,5.71,0,0,1,453.31,282.85ZM260.21.25a5.47,5.47,0,0,0-5.46,5.46V277.14a5.47,5.47,0,0,0,5.46,5.46h193.1a5.47,5.47,0,0,0,5.46-5.46V5.71A5.47,5.47,0,0,0,453.31.25Z"/><rect class="cls-1" x="92.03" y="230.91" width="126.42" height="8.92"/><rect class="cls-2" x="163.48" y="230.91" width="54.97" height="8.92"/><rect class="cls-1" x="92.03" y="239.84" width="18.68" height="87.61"/><polygon class="cls-2" points="110.71 248.88 92.03 242.52 92.03 239.84 110.71 239.84 110.71 248.88"/><rect class="cls-2" x="199.77" y="239.84" width="18.68" height="87.61"/><rect class="cls-1" x="163.48" y="239.84" width="18.68" height="87.61"/><polygon class="cls-2" points="182.15 248.88 163.48 242.52 163.48 239.84 182.15 239.84 182.15 248.88"/><rect class="cls-2" x="128.32" y="239.84" width="18.68" height="87.61"/><rect class="cls-1" x="71" y="32.21" width="159.33" height="135.67"/><rect class="cls-2" x="230.33" y="32.21" width="1.78" height="135.67" transform="translate(462.44 200.09) rotate(180)"/><rect class="cls-3" x="88.83" y="26.38" width="123.67" height="147.33" transform="translate(250.71 -50.62) rotate(90)"/><path class="cls-4" d="M148.89,143.1c9-30,11.5-74.24,30.64-68.14s-5.93,71.53-5.93,71.53Z"/><path class="cls-4" d="M164.35,144.6C155.19,101.12,157.5,43.4,129,44.72s0,101.77,0,101.77Z"/><path class="cls-1" d="M184.46,139.72H122.15a4.85,4.85,0,0,0-5,4.61c-1.27,28.7,3.43,57.95,12.18,86.58h47.71c8.75-28.63,13.45-57.88,12.18-86.58A4.79,4.79,0,0,0,184.46,139.72Z"/><rect class="cls-2" x="322.69" y="47.35" width="3.51" height="280.1"/><rect class="cls-2" x="405.18" y="47.35" width="3.51" height="280.1"/><rect class="cls-1" x="297.8" y="47.35" width="3.51" height="280.1"/><rect class="cls-1" x="380.29" y="47.35" width="3.51" height="280.1"/><rect class="cls-1" x="297.8" y="45.43" width="110.89" height="3.83"/><rect class="cls-1" x="297.8" y="114.02" width="110.89" height="3.83"/><rect class="cls-1" x="297.8" y="182.61" width="110.89" height="3.83"/><rect class="cls-1" x="297.8" y="251.2" width="110.89" height="3.83"/><rect class="cls-1" x="297.8" y="319.79" width="110.89" height="3.83"/><rect class="cls-2" x="383.8" y="45.43" width="24.89" height="3.83"/><rect class="cls-2" x="383.8" y="114.02" width="24.89" height="3.83"/><rect class="cls-2" x="383.8" y="182.61" width="24.89" height="3.83"/><rect class="cls-2" x="383.8" y="251.2" width="24.89" height="3.83"/><rect class="cls-2" x="383.8" y="319.79" width="24.89" height="3.83"/><path class="cls-5" d="M342.53,68.76v-5.4H329.2v5.4a6.38,6.38,0,0,1-6.38,6.38h0a6.39,6.39,0,0,0-6.39,6.39V114h38.88V81.53a6.39,6.39,0,0,0-6.39-6.39h0A6.38,6.38,0,0,1,342.53,68.76Z"/><rect class="cls-5" x="311.7" y="160.3" width="58.42" height="22.31"/><rect class="cls-6" x="370.12" y="160.3" width="10.17" height="22.31" transform="translate(750.41 342.91) rotate(180)"/><rect class="cls-1" x="370.12" y="170.23" width="10.17" height="2.46" transform="translate(750.41 342.91) rotate(180)"/><rect class="cls-3" x="311.7" y="170.23" width="58.42" height="2.46"/><rect class="cls-5" x="308.84" y="280.35" width="45.63" height="39.44"/><rect class="cls-6" x="354.47" y="280.35" width="7.94" height="39.44" transform="translate(716.88 600.14) rotate(180)"/><rect class="cls-1" x="354.47" y="297.9" width="7.94" height="4.35" transform="translate(716.88 600.14) rotate(180)"/><rect class="cls-3" x="308.84" y="297.9" width="45.63" height="4.35"/><rect class="cls-1" x="354.47" y="293.3" width="7.94" height="1.55" transform="translate(716.88 588.15) rotate(180)"/><rect class="cls-3" x="308.84" y="293.3" width="45.63" height="1.55"/><rect class="cls-5" x="311.7" y="211.1" width="8.26" height="40.1"/><rect class="cls-7" x="311.7" y="225.39" width="8.26" height="11.52"/><rect class="cls-6" x="319.97" y="211.1" width="28.1" height="40.1" transform="translate(668.03 462.3) rotate(180)"/><rect class="cls-1" x="323.39" y="205.92" width="9.33" height="45.28"/><rect class="cls-7" x="323.39" y="220.31" width="9.33" height="6.97"/><rect class="cls-7" x="323.39" y="231.95" width="9.33" height="6.97"/><rect class="cls-2" x="332.72" y="205.92" width="31.73" height="45.28" transform="translate(697.18 457.11) rotate(180)"/><rect class="cls-5" x="338.08" y="211.1" width="5.03" height="40.1"/><rect class="cls-7" x="338.94" y="216.18" width="3.3" height="29.94"/><rect class="cls-6" x="343.11" y="211.1" width="17.09" height="40.1" transform="translate(703.3 462.3) rotate(180)"/><rect class="cls-1" x="350.86" y="208.98" width="5.68" height="42.21"/><rect class="cls-7" x="350.86" y="222.4" width="5.68" height="6.5"/><rect class="cls-7" x="350.86" y="233.25" width="5.68" height="6.5"/><rect class="cls-2" x="356.54" y="208.98" width="19.3" height="42.21" transform="translate(732.38 460.18) rotate(180)"/><circle class="cls-3" cx="345.16" cy="147.87" r="12.44" transform="translate(-3.46 287.37) rotate(-45)"/><circle class="cls-1" cx="358.92" cy="151.68" r="8.62" transform="translate(-19.66 59.45) rotate(-9.22)"/></g><g id="Shadow"><ellipse id="_Path_" data-name="&lt;Path&gt;" class="cls-3" cx="250" cy="361.29" rx="193.89" ry="11.32"/></g><g id="Box"><path class="cls-8" d="M126.11,283.74H254.55a0,0,0,0,1,0,0v66.34a6.47,6.47,0,0,1-6.47,6.47H132.58a6.47,6.47,0,0,1-6.47-6.47V283.74A0,0,0,0,1,126.11,283.74Z"/><path class="cls-8" d="M126.11,283.74H217l-11.18-14.31c-1.23-1.57-4.27-2.84-6.8-2.84H117.28c-2.52,0-3.58,1.27-2.35,2.84Z"/><path class="cls-9" d="M126.11,283.74H217l-11.18-14.31c-1.23-1.57-4.27-2.84-6.8-2.84H117.28c-2.52,0-3.58,1.27-2.35,2.84Z"/><path class="cls-8" d="M254.55,283.74H163.67l11.18-9.33c1.23-1,4.27-1.85,6.8-1.85h81.73c2.53,0,3.58.83,2.35,1.85Z"/><path class="cls-10" d="M163.67,283.74h90.88a0,0,0,0,1,0,0v66.34a6.47,6.47,0,0,1-6.47,6.47H170.14a6.47,6.47,0,0,1-6.47-6.47V283.74A0,0,0,0,1,163.67,283.74Z"/><polygon class="cls-11" points="137.39 283.74 137.39 329.22 140.53 326.74 142.74 329.22 144.66 326.46 146.63 329.22 149.37 327.14 152.39 329.22 152.39 283.74 137.39 283.74"/></g><g id="Character"><line class="cls-12" x1="157.72" y1="184.53" x2="141.57" y2="170.97"/><line class="cls-12" x1="166.09" y1="191.55" x2="161.17" y2="187.42"/><path class="cls-8" d="M214.47,219.94l53.28-66.6L196.81,93.79l-47,53.93-7,13.49a3.74,3.74,0,0,0,.47,5.48l64,53.74A5.29,5.29,0,0,0,214.47,219.94Z"/><polygon class="cls-11" points="177.93 170.83 170.26 183.18 173.35 183.84 174.4 186.71 176.45 186.83 177.4 189.28 179.91 190.01 181.84 193.08 189.51 180.72 177.93 170.83"/><polygon class="cls-13" points="265.43 151.4 217.65 204.7 149.78 147.72 196.81 93.79 265.43 151.4"/><polygon class="cls-8" points="265.43 151.4 217.65 204.7 237.43 206.16 284.47 152.23 265.43 151.4"/><polygon class="cls-14" points="265.43 151.4 217.65 204.7 237.43 206.16 284.47 152.23 265.43 151.4"/><polygon class="cls-8" points="177.78 92.95 129.99 146.25 149.78 147.72 196.81 93.79 177.78 92.95"/><polygon class="cls-15" points="177.78 92.95 129.99 146.25 149.78 147.72 196.81 93.79 177.78 92.95"/><polygon class="cls-13" points="250.72 167.81 265.43 151.4 196.81 93.79 188.03 114.95 250.72 167.81"/><polygon class="cls-9" points="149.78 147.72 196.81 93.79 188.03 114.95 154.91 152.02 149.78 147.72"/><path class="cls-16" d="M282,51.05c.19.65,0,1.27-.42,1.4s-.91-.3-1.1-1,0-1.27.42-1.39S281.82,50.41,282,51.05Z"/><path class="cls-17" d="M282.07,52.31a23.93,23.93,0,0,1-1.46,6.42,3.9,3.9,0,0,0,3.26-.32Z"/><path class="cls-16" d="M283.33,46.78a.41.41,0,0,0-.06-.73,3.92,3.92,0,0,0-3.58.42.39.39,0,0,0-.07.55.4.4,0,0,0,.55.08h0a3.12,3.12,0,0,1,2.84-.3A.4.4,0,0,0,283.33,46.78Z"/><path class="cls-18" d="M304.24,55.33c.44,5.3,1.75,15,4.88,17.24,0,0-.74,6.37-12,8-12.34,1.83-6.8-5.25-6.8-5.25,6.49-2.6,5.58-7.57,3.72-12.09l4.76-5.46C300.63,55.74,304,52.62,304.24,55.33Z"/><path class="cls-4" d="M313.15,75.15c1-.9-1-4.54-2.23-5.05-3.22-1.35-16.39,0-21.34,4.25a5.44,5.44,0,0,0-.39,4.68Z"/><path class="cls-8" d="M355.09,342.46a2.73,2.73,0,0,1-2.08.06.82.82,0,0,1-.27-.9.91.91,0,0,1,.46-.62c1.08-.63,3.75.2,3.86.23a.2.2,0,0,1,.14.17.19.19,0,0,1-.1.19A10.67,10.67,0,0,1,355.09,342.46Zm-1.46-1.22-.23.1a.51.51,0,0,0-.27.36c-.07.36.07.46.11.5.48.34,2.11-.15,3.24-.72A6.55,6.55,0,0,0,353.63,341.24Z"/><path class="cls-8" d="M357.06,341.61H357c-1-.2-3.09-1.46-3.2-2.4a.65.65,0,0,1,.45-.68,1.12,1.12,0,0,1,.88,0c1.16.47,2.06,2.72,2.09,2.81a.18.18,0,0,1,0,.2A.15.15,0,0,1,357.06,341.61Zm-2.6-2.74-.09,0c-.23.11-.22.23-.21.28.06.56,1.48,1.56,2.49,1.94-.3-.65-1-1.91-1.71-2.21A.68.68,0,0,0,354.46,338.87Z"/><path class="cls-8" d="M296.48,353.2c-1.07,0-2.1-.15-2.45-.63a.75.75,0,0,1,0-.87,1,1,0,0,1,.62-.46c1.39-.38,4.31,1.29,4.43,1.36a.19.19,0,0,1-.06.36A14.14,14.14,0,0,1,296.48,353.2Zm-1.32-1.62a1.48,1.48,0,0,0-.38,0,.61.61,0,0,0-.39.28c-.14.25-.09.37,0,.44.39.54,2.5.55,4,.33A8.88,8.88,0,0,0,295.16,351.58Z"/><path class="cls-8" d="M299,353l-.08,0c-1-.45-3-2.26-2.85-3.2,0-.22.2-.5.74-.55a1.42,1.42,0,0,1,1.09.34c1.07.87,1.29,3.11,1.3,3.21a.18.18,0,0,1-.08.18A.28.28,0,0,1,299,353Zm-2-3.39h-.12c-.36,0-.38.18-.39.22-.09.57,1.27,2,2.29,2.6a4.57,4.57,0,0,0-1.1-2.57A1.05,1.05,0,0,0,297,349.58Z"/><polygon class="cls-18" points="308.18 352.77 299.83 352.77 299 333.45 307.35 333.45 308.18 352.77"/><polygon class="cls-18" points="366.83 339.58 359.14 342.23 351.16 324.01 358.85 321.36 366.83 339.58"/><path class="cls-16" d="M357.31,340.32l9-2.75a.73.73,0,0,1,.85.34l3.75,6.6a1.23,1.23,0,0,1-.73,1.78c-3.15.9-4.72,1.19-8.66,2.39-2.43.75-8.55,3.07-12,3.76s-4.56-2.62-3.22-3.21c6-2.64,8.46-5.65,9.89-8A2,2,0,0,1,357.31,340.32Z"/><path class="cls-16" d="M299.89,351.8H309a.74.74,0,0,1,.71.57l1.65,7.42a1.21,1.21,0,0,1-1.2,1.48c-3.29-.06-8-.25-12.17-.25-4.83,0-6.86.27-12.53.27-3.42,0-4.37-3.47-2.94-3.78,6.53-1.43,9.72-1.58,15.36-5.06A3.84,3.84,0,0,1,299.89,351.8Z"/><path class="cls-18" d="M324.14,77.89c2.43,2.23,4.53,4.46,6.71,6.79s4.2,4.74,6.16,7.31a69.73,69.73,0,0,1,5.56,8.24,35.94,35.94,0,0,1,2.34,4.94c.17.47.34.91.48,1.43a15.35,15.35,0,0,1,.41,1.56l.17.83.12.92a9.73,9.73,0,0,1,0,2.55,10.66,10.66,0,0,1-1.72,4.44,14.75,14.75,0,0,1-2.3,2.65,26.68,26.68,0,0,1-4.56,3.33,58.2,58.2,0,0,1-9,4.18,107.54,107.54,0,0,1-18.18,5l-1.75-6c5.43-2.35,10.93-4.89,16-7.61a60.53,60.53,0,0,0,7.11-4.37,16.51,16.51,0,0,0,2.59-2.3,3.44,3.44,0,0,0,.59-.86c.08-.17,0-.15-.1.22-.07.67-.06.15-.22-.21-.05-.18-.14-.4-.23-.63s-.2-.46-.31-.7a30.56,30.56,0,0,0-1.81-3.17,74.11,74.11,0,0,0-5-6.61c-1.84-2.19-3.78-4.35-5.77-6.49s-4.08-4.27-6-6.25Z"/><path class="cls-18" d="M310.87,125.12,303,127.5l5.06,8.32s4.65-1.92,5.68-5.87Z"/><polygon class="cls-18" points="299.82 130.44 302.92 137.31 308.01 135.82 302.95 127.5 299.82 130.44"/><path class="cls-8" d="M305.7,80.15c-.75,8,16.17,20.37,16.17,20.37l16.29-11.14a34.28,34.28,0,0,0-12-12.75C316.82,70.64,306.64,70.21,305.7,80.15Z"/><g class="cls-19"><path class="cls-4" d="M305.7,80.15c-.75,8,16.17,20.37,16.17,20.37l16.29-11.14a34.28,34.28,0,0,0-12-12.75C316.82,70.64,306.64,70.21,305.7,80.15Z"/></g><path class="cls-8" d="M278,79.51s-7.31,11.21,10.05,71.4l44.14-6.52c-.62-6.1-8-32.71-8.25-61.81A10.4,10.4,0,0,0,313,72.28c-1.28.07-2.6.16-3.91.29a164.5,164.5,0,0,0-18.76,2.77A83.27,83.27,0,0,0,278,79.51Z"/><g class="cls-19"><path class="cls-4" d="M278,79.51s-7.31,11.21,10.05,71.4l44.14-6.52c-.62-6.1-8-32.71-8.25-61.81A10.4,10.4,0,0,0,313,72.28c-1.28.07-2.6.16-3.91.29a164.5,164.5,0,0,0-18.76,2.77A83.27,83.27,0,0,0,278,79.51Z"/></g><path class="cls-9" d="M276.92,98.84l.15-.17,10.38.93c1.58,6.7-4.2,15.84-7.25,20.07A194.2,194.2,0,0,1,276.92,98.84Z"/><polygon class="cls-9" points="299 333.45 299.43 343.41 307.78 343.41 307.35 333.45 299 333.45"/><polygon class="cls-9" points="358.85 321.37 351.16 324.02 355.28 333.41 362.97 330.76 358.85 321.37"/><path class="cls-18" d="M303.15,43.37c1.84,8.07,3.32,12.7.51,17.94-4.22,7.89-15.08,7.14-19.29-.22-3.79-6.63-6.17-18.72.67-24.15A11.29,11.29,0,0,1,303.15,43.37Z"/><path class="cls-16" d="M286.94,51.28l-3.07,1.88.29-10.5a9.07,9.07,0,0,1-5.56-1.61C279.71,40,297,33.94,302.38,35c.56-.23,1.24-1.28,1.24-1.28s.21,1.32-.7,1.82c.66-.13,2.31.18,2.77,1.16a3.61,3.61,0,0,0-2.29.13s6,.91,3.87,9.23c-2.39,9.16-1.6,14.44-1.6,14.44s-4.46,3.45-8.34,2.81C293.19,58.74,287.21,53.26,286.94,51.28Z"/><path class="cls-16" d="M281.06,40.21c-4.87,0-6.62-2.37-7.87-4.37,3.5-.38,10.79-2.63,16.2-3s11.34.62,9.55,3S281.06,40.21,281.06,40.21Z"/><path class="cls-16" d="M282.13,38.05c-4-.56-7.9-4.34-4.9-7.95,1.11,2.66,8.6,2.35,13.92,1.24,7-1.46,11.85.9,9.37,5.67C299.16,39.62,282.13,38.05,282.13,38.05Z"/><path class="cls-18" d="M291.26,48.89a9.37,9.37,0,0,1-.26,6c-1,2.52-3.22,2-4.38-.17-1-1.95-1.76-5.62-.06-7.43S290.54,46.52,291.26,48.89Z"/><path class="cls-16" d="M303.71,148.6s7.16,61,12.36,84.83c5.69,26.15,33.76,97.48,33.76,97.48l14-4.84s-18-53.7-22.78-90.27c-3.67-28.09-8.9-91.41-8.9-91.41Z"/><path class="cls-8" d="M346.25,326.43c-.07,0,2.87,6,2.87,6l16.35-5.31-1.92-4.88Z"/><path class="cls-14" d="M307.66,179.87c2.24,16.93,5.11,37,7.63,49.81C319,210,319.87,185.26,307.66,179.87Z"/><path class="cls-16" d="M288.05,150.91s-5.94,57.26-5,82.7c.94,26.46,13.3,107.87,13.3,107.87h14.13s-2.6-79.87-2-105.85c.69-28.34,11.31-89.41,11.31-89.41Z"/><path class="cls-8" d="M293.6,335.86c-.06,0,.8,5.86.8,5.86h17.19l.47-5.23Z"/><path class="cls-18" d="M285.31,93.57c-1.56,2.48-3.14,4.71-4.78,7s-3.36,4.5-5.11,6.7a126.58,126.58,0,0,1-11.57,12.62c-1.12,1-2.15,2-3.36,2.91l-.88.7-.44.36c-.16.13-.23.19-.56.43a12.32,12.32,0,0,1-3.23,1.67,19.11,19.11,0,0,1-5.53,1,30.79,30.79,0,0,1-4.77-.22A60.06,60.06,0,0,1,228.33,122l1.73-6a110.14,110.14,0,0,0,15.42.74,30.51,30.51,0,0,0,3.4-.37,8.48,8.48,0,0,0,2.44-.76c.24-.14.37-.26.34-.29s.13-.13.22-.22l.34-.32.67-.62c.9-.8,1.75-1.77,2.63-2.65,1.73-1.86,3.45-3.77,5.08-5.8s3.28-4.08,4.88-6.17,3.15-4.23,4.71-6.37,3.08-4.36,4.52-6.43Z"/><path class="cls-8" d="M291.12,90.92c3.36,11-16.15,23.19-16.15,23.19L262.29,98a71,71,0,0,1,10.5-14.69C281.42,73.88,288.56,82.55,291.12,90.92Z"/><g class="cls-19"><path class="cls-4" d="M291.12,90.92c3.36,11-16.15,23.19-16.15,23.19L262.29,98a71,71,0,0,1,10.5-14.69C281.42,73.88,288.56,82.55,291.12,90.92Z"/></g><path class="cls-18" d="M233,116.38l-10.27-1.89,1.08,8.89s5.34,3,9.21-1.69Z"/><polygon class="cls-18" points="218.77 116.5 220.99 122.91 223.79 123.38 222.71 114.49 218.77 116.5"/></g></g></svg>