<?xml version="1.0"?>
<svg xmlns="http://www.w3.org/2000/svg" height="512px" viewBox="-29 0 512 512" width="512px" class="" style="user-select: auto;"><g style="user-select: auto;"><path d="m453.9375 0h-30v262.363281c-22.195312-25.316406-54.753906-41.332031-90.984375-41.332031-36.234375 0-68.792969 16.015625-90.984375 41.332031 0 0 0-113.585937 0-113.863281 0-43.402344-22.976562-81.527344-57.394531-102.882812l11.402343-45.617188h-149.984374l11.402343 45.617188c-34.417969 21.351562-57.394531 59.480468-57.394531 102.882812v363.5h30v-283.847656c22.191406 25.316406 54.75 41.332031 90.984375 41.332031 36.230469 0 68.792969-16.015625 90.984375-41.332031v113.863281c0 61.632813 46.324219 112.644531 105.980469 120.054687v49.929688h30v-49.929688c59.660156-7.410156 105.984375-58.421874 105.984375-120.054687.003906-.226563.003906-342.015625.003906-342.015625zm-105.984375 376.398438c13.300781-5.789063 22.625-19.015626 22.625-34.382813 0-20.675781-16.878906-37.5-37.625-37.5s-37.625 16.824219-37.625 37.5c0 15.367187 9.324219 28.59375 22.625 34.382813v31.421874c-30.089844-6.832031-52.625-33.730468-52.625-65.804687 0-37.21875 30.335937-67.5 67.625-67.5 37.285156 0 67.625 30.28125 67.625 67.5 0 32.074219-22.535156 58.972656-52.625 65.804687zm-264.566406-226.8125c.582031 20.175781 17.214843 36.414062 37.597656 36.414062s37.019531-16.242188 37.597656-36.421875l11.78125-47.128906c11.304688 12.070312 18.246094 28.261719 18.246094 46.050781 0 37.21875-30.339844 67.496094-67.625 67.496094-37.289063 0-67.625-30.277344-67.625-67.496094 0-17.789062 6.9375-33.980469 18.242187-46.050781zm0 0" data-original="#000000" class="active-path" style="user-select: auto;" data-old_color="#000000" fill="#44566C"/></g> </svg>
